<svg xmlns="http://www.w3.org/2000/svg" width="18" height="18" viewBox="0 0 18 18">
    <g fill="none" fill-rule="evenodd">
        <g fill="#001A70">
            <g>
                <g>
                    <path d="M9.088 2.588c3.59 0 6.5 2.91 6.5 6.5 0 1.415-.455 2.721-1.224 3.788l5.547 5.547c.36.36.388.928.083 1.32l-.083.095-.073.073c-.39.39-1.024.39-1.415 0l-5.546-5.547c-1.067.769-2.374 1.224-3.79 1.224-3.59 0-6.5-2.91-6.5-6.5s2.91-6.5 6.5-6.5zm0 2c-2.486 0-4.5 2.015-4.5 4.5 0 2.486 2.014 4.5 4.5 4.5 2.485 0 4.5-2.014 4.5-4.5 0-2.485-2.015-4.5-4.5-4.5z" transform="translate(-1642 -452) translate(1335 449) translate(307 3)"/>
                </g>
            </g>
        </g>
    </g>
</svg>
