<svg xmlns="http://www.w3.org/2000/svg" width="32" height="32" viewBox="0 0 32 32">
    <g fill="none" fill-rule="evenodd">
        <g fill="#94A9CB">
            <g>
                <g>
                    <path d="M31.999 2.638c.019-.64-.227-1.26-.68-1.712-.452-.453-1.072-.699-1.712-.68H2.414C1.17.204.11 1.142 0 2.381v27.69c.109 1.226 1.15 2.159 2.382 2.132h27.225c.64.019 1.26-.227 1.712-.68.453-.453.699-1.072.68-1.712V2.638zM9.171 27.457c-1.386-.012-2.77-.012-4.153 0-.227 0-.282-.065-.28-.284v-7.307-7.308c0-.264.065-.33.33-.326 1.375.012 2.749.012 4.123 0 .249 0 .296.07.296.302v14.611c0 .257-.072.314-.316.312zM7.113 10.139c-1.514 0-2.74-1.227-2.74-2.74 0-1.514 1.226-2.74 2.74-2.74 1.513 0 2.74 1.226 2.74 2.74-.01 1.51-1.23 2.73-2.74 2.74zm20.15 16.989c0 .264-.062.331-.326.329-1.366-.015-2.74 0-4.096 0-.25 0-.312-.06-.312-.312.01-2.533.01-5.067 0-7.603.008-.54-.042-1.078-.15-1.607-.31-1.42-1.202-2.068-2.652-1.926-1.45.142-2.243.982-2.442 2.544-.048.405-.071.812-.07 1.22v7.367c0 .25-.072.31-.316.31-1.385-.012-2.77-.012-4.153 0-.23 0-.282-.068-.282-.287V12.519c0-.25.08-.294.307-.294h3.944c.249 0 .298.077.293.304-.014.583 0 1.168 0 1.744l.078.032c.236-.387.523-.742.852-1.054.958-.923 2.245-1.424 3.575-1.393 1.054 0 2.085.12 3.047.593 1.415.698 2.075 1.936 2.409 3.399.225 1.1.326 2.222.301 3.345-.002 2.644-.015 5.29-.007 7.933z" transform="translate(-375 -889) translate(375 775) translate(0 114)"/>
                </g>
            </g>
        </g>
    </g>
</svg>
