<svg xmlns="http://www.w3.org/2000/svg" width="56" height="56" viewBox="0 0 56 56">
    <g fill="none" fill-rule="evenodd">
        <g fill="#94A9CB">
            <g>
                <path d="M28 17.5c1.478-.004 2.813.884 3.38 2.249.568 1.364.256 2.937-.79 3.982-1.044 1.045-2.617 1.357-3.981.79-1.365-.568-2.253-1.903-2.249-3.381 0-2.01 1.63-3.64 3.64-3.64m0-1.5c-2.085-.004-3.966 1.25-4.766 3.175-.8 1.925-.36 4.142 1.114 5.617 1.475 1.474 3.692 1.914 5.617 1.114 1.926-.8 3.179-2.681 3.175-4.766 0-2.839-2.301-5.14-5.14-5.14zM33.77 28.32c1.844.896 3.01 2.77 3 4.82v5.15c-.005.118-.102.21-.22.21H19.43c-.118 0-.215-.092-.22-.21v-5.15c-.01-2.05 1.156-3.924 3-4.82 3.366 2.72 8.174 2.72 11.54 0m-.32-1.73c-1.442 1.452-3.404 2.269-5.45 2.269-2.046 0-4.008-.817-5.45-2.269-2.875.886-4.837 3.542-4.84 6.55v5.15c.003.458.188.896.514 1.217.327.32.768.498 1.226.493h17.14c.946 0 1.714-.764 1.72-1.71v-5.15c-.003-3.008-1.965-5.664-4.84-6.55h-.02zM4 26c1.105 0 2 .895 2 2s-.895 2-2 2-2-.895-2-2 .895-2 2-2m0-1.5C2.067 24.5.5 26.067.5 28s1.567 3.5 3.5 3.5 3.5-1.567 3.5-3.5-1.567-3.5-3.5-3.5zM28 2c1.105 0 2 .895 2 2s-.895 2-2 2-2-.895-2-2 .895-2 2-2m0-1.5c-1.933 0-3.5 1.567-3.5 3.5s1.567 3.5 3.5 3.5 3.5-1.567 3.5-3.5c0-.928-.369-1.818-1.025-2.475C29.818.87 28.928.5 28 .5zM52 26c1.105 0 2 .895 2 2s-.895 2-2 2-2-.895-2-2 .895-2 2-2m0-1.5c-1.933 0-3.5 1.567-3.5 3.5s1.567 3.5 3.5 3.5 3.5-1.567 3.5-3.5-1.567-3.5-3.5-3.5zM28 50c1.105 0 2 .895 2 2s-.895 2-2 2-2-.895-2-2 .895-2 2-2m0-1.5c-1.933 0-3.5 1.567-3.5 3.5s1.567 3.5 3.5 3.5 3.5-1.567 3.5-3.5-1.567-3.5-3.5-3.5zM49.952 35.643c.136-.39.564-.598.955-.461.39.136.598.564.461.955-2.485 7.136-8.095 12.746-15.231 15.231-.391.137-.819-.07-.955-.461-.137-.391.07-.819.461-.955 6.704-2.335 11.974-7.605 14.309-14.309zM5.093 35.182c.391-.137.819.07.955.461 2.335 6.704 7.605 11.974 14.309 14.309.39.136.598.564.461.955-.136.39-.564.598-.955.461-7.136-2.485-12.746-8.095-15.231-15.231-.137-.391.07-.819.461-.955zM19.863 4.632c.391-.137.819.07.955.461.137.391-.07.819-.461.955-6.704 2.335-11.974 7.605-14.309 14.309-.136.39-.564.598-.955.461-.39-.136-.598-.564-.461-.955 2.485-7.136 8.095-12.746 15.231-15.231zM35.182 5.093c.136-.39.564-.598.955-.461 7.136 2.485 12.746 8.095 15.231 15.231.137.391-.07.819-.461.955-.391.137-.819-.07-.955-.461-2.335-6.704-7.605-11.974-14.309-14.309-.39-.136-.598-.564-.461-.955z" transform="translate(-375 -289) translate(375 289)"/>
            </g>
        </g>
    </g>
</svg>
