<svg xmlns="http://www.w3.org/2000/svg" width="40" height="40" viewBox="0 0 40 40">
    <g fill="none" fill-rule="evenodd">
        <rect width="38.5" height="38.5" x=".75" y=".75" stroke="#94A9CB" stroke-width="1.5" rx="3"/>
        <path fill="#001A70" d="M13.197 12.147l.084.073 6.475 6.475 6.476-6.475c.292-.293.767-.293 1.06 0 .266.266.29.683.073.977l-.073.084-6.476 6.475 6.476 6.476c.293.292.293.767 0 1.06-.267.266-.683.29-.977.073l-.084-.073-6.476-6.476-6.475 6.476c-.293.293-.767.293-1.06 0-.267-.267-.29-.683-.073-.977l.073-.084 6.475-6.476-6.475-6.475c-.293-.293-.293-.767 0-1.06.266-.267.683-.29.977-.073z"/>
    </g>
</svg>
