<svg xmlns="http://www.w3.org/2000/svg" width="96" height="96" viewBox="0 0 96 96">
    <defs>
        <linearGradient id="19k1wbbbta" x1="71.078%" x2="20.904%" y1="-7.364%" y2="96.56%">
            <stop offset="0%" stop-color="#3BD4AE"/>
            <stop offset="50%" stop-color="#00C1DE"/>
            <stop offset="100%" stop-color="#9578D3"/>
        </linearGradient>
    </defs>
    <g fill="none" fill-rule="evenodd">
        <g fill="url(#19k1wbbbta)" fill-rule="nonzero" transform="translate(-372 -1079)">
            <g>
                <g>
                    <g>
                        <g>
                            <path d="M77.63 32.5H4.37C1.957 32.5 0 34.457 0 36.87v19.92c0 2.41 1.95 4.364 4.36 4.37h2.42v5.23c.006 1.009.409 1.975 1.12 2.69l12.82 12.68c1.47 1.44 3.82 1.44 5.29 0l12.23-12.25c.706-.705 1.103-1.662 1.103-2.66 0-.998-.397-1.955-1.103-2.66-.437-.428-.978-.734-1.57-.89.554-.58.905-1.324 1-2.12h39.9c1.173.016 2.303-.44 3.136-1.266.833-.825 1.3-1.951 1.294-3.124V36.87c0-1.159-.46-2.27-1.28-3.09-.82-.82-1.931-1.28-3.09-1.28zm-40.8 33.1c.678.695.678 1.805 0 2.5L24.6 80.32c-.686.681-1.794.681-2.48 0L9.32 67.66c-.333-.34-.523-.794-.53-1.27V52.87c0-.978.792-1.77 1.77-1.77s1.77.792 1.77 1.77l.16 8.73 1.17 1.27 19.51-19.51c.694-.672 1.796-.672 2.49 0 .33.33.516.778.516 1.245 0 .467-.186.915-.516 1.245L30 51.5c-.1.07-.18.15-.23.19l-6.89 6.93L24.33 60l7-7c.696-.582 1.72-.543 2.37.09.685.697.685 1.813 0 2.51L31.37 58l-4.56 4.5 1.41 1.42L31 61.16l1.81-1.8c.465-.496 1.176-.677 1.82-.462.645.215 1.106.786 1.18 1.462.099.555-.08 1.123-.48 1.52l-2.35 2.32-2.2 2.18 1.4 1.42 2.21-2.17c.687-.63 1.738-.643 2.44-.03zM80 56.79c0 1.309-1.061 2.37-2.37 2.37H37.48c-.414-1.04-1.279-1.835-2.35-2.16.925-.935 1.297-2.284.983-3.561-.314-1.278-1.27-2.3-2.523-2.699l3.49-3.5c1.46-1.473 1.46-3.847 0-5.32-1.488-1.422-3.832-1.422-5.32 0L14.45 59.25l-.12-6.38c0-2.082-1.688-3.77-3.77-3.77s-3.77 1.688-3.77 3.77v6.29H4.37C3.061 59.16 2 58.099 2 56.79V36.87c0-1.305 1.055-2.364 2.36-2.37h73.27c1.307.005 2.365 1.063 2.37 2.37v19.92zM3 25.33h19.33c1.657 0 3-1.343 3-3V3c0-1.657-1.343-3-3-3H3C1.343 0 0 1.343 0 3v19.33c0 1.657 1.343 3 3 3zM2 3c0-.552.448-1 1-1h19.33c.552 0 1 .448 1 1v19.33c0 .552-.448 1-1 1H3c-.552 0-1-.448-1-1V3zm31.34-.33c0-.552.448-1 1-1h40c.552 0 1 .448 1 1s-.448 1-1 1h-40c-.552 0-1-.448-1-1zm0 10c0-.552.448-1 1-1H61c.552 0 1 .448 1 1s-.448 1-1 1H34.34c-.552 0-1-.448-1-1zm0 10c0-.552.448-1 1-1h33.33c.552 0 1 .448 1 1s-.448 1-1 1H34.34c-.552 0-1-.448-1-1z" transform="translate(0 951) translate(255 128) translate(117) translate(7 7)"/>
                        </g>
                    </g>
                </g>
            </g>
        </g>
    </g>
</svg>
