<svg xmlns="http://www.w3.org/2000/svg" width="112" height="112" viewBox="0 0 112 112">
    <g fill="none" fill-rule="evenodd">
        <g fill="#94A9CB">
            <g>
                <g>
                    <g>
                        <path d="M56 35c2.956-.008 5.625 1.768 6.76 4.497 1.135 2.73.512 5.874-1.578 7.965-2.09 2.09-5.235 2.713-7.965 1.578-2.73-1.135-4.505-3.804-4.497-6.76 0-4.02 3.26-7.28 7.28-7.28m0-3c-4.17-.008-7.933 2.498-9.532 6.35-1.6 3.85-.72 8.285 2.229 11.233 2.948 2.949 7.383 3.828 11.234 2.23 3.85-1.6 6.357-5.363 6.349-9.533C66.28 36.603 61.677 32 56 32zM67.54 56.64c3.687 1.792 6.02 5.54 6 9.64v10.3c-.01.235-.205.42-.44.42H38.86c-.235 0-.43-.185-.44-.42v-10.3c-.02-4.1 2.313-7.848 6-9.64 6.732 5.44 16.348 5.44 23.08 0m-.64-3.46c-2.884 2.904-6.807 4.538-10.9 4.538s-8.016-1.634-10.9-4.538c-5.75 1.772-9.675 7.083-9.68 13.1v10.3c.005.916.376 1.792 1.029 2.434.653.642 1.535.997 2.451.986h34.28c1.892 0 3.429-1.528 3.44-3.42v-10.3c-.005-6.017-3.93-11.328-9.68-13.1h-.04zM8 52c2.21 0 4 1.79 4 4s-1.79 4-4 4-4-1.79-4-4 1.79-4 4-4m0-3c-3.866 0-7 3.134-7 7s3.134 7 7 7 7-3.134 7-7-3.134-7-7-7zM56 4c2.21 0 4 1.79 4 4s-1.79 4-4 4-4-1.79-4-4 1.79-4 4-4m0-3c-3.866 0-7 3.134-7 7s3.134 7 7 7 7-3.134 7-7c0-1.857-.737-3.637-2.05-4.95C59.637 1.737 57.857 1 56 1zM104 52c2.21 0 4 1.79 4 4s-1.79 4-4 4-4-1.79-4-4 1.79-4 4-4m0-3c-3.866 0-7 3.134-7 7s3.134 7 7 7 7-3.134 7-7-3.134-7-7-7zM56 100c2.21 0 4 1.79 4 4s-1.79 4-4 4-4-1.79-4-4 1.79-4 4-4m0-3c-3.866 0-7 3.134-7 7s3.134 7 7 7 7-3.134 7-7-3.134-7-7-7zM99.903 71.287c.273-.783 1.128-1.196 1.91-.924.783.273 1.196 1.128.924 1.91-4.972 14.273-16.191 25.492-30.464 30.464-.782.272-1.637-.141-1.91-.924-.272-.782.141-1.637.924-1.91 13.407-4.67 23.946-15.209 28.616-28.616zM10.187 70.363c.782-.272 1.637.141 1.91.924 4.67 13.407 15.209 23.946 28.616 28.616.783.273 1.196 1.128.924 1.91-.273.783-1.128 1.196-1.91.924-14.273-4.972-25.492-16.191-30.464-30.464-.272-.782.141-1.637.924-1.91zM39.727 9.263c.782-.272 1.637.141 1.91.924.272.782-.141 1.637-.924 1.91-13.407 4.67-23.946 15.209-28.616 28.616-.273.783-1.128 1.196-1.91.924-.783-.273-1.196-1.128-.924-1.91 4.972-14.273 16.191-25.492 30.464-30.464zM70.363 10.187c.273-.783 1.128-1.196 1.91-.924 14.273 4.972 25.492 16.191 30.464 30.464.272.782-.141 1.637-.924 1.91-.782.272-1.637-.141-1.91-.924-4.67-13.407-15.209-23.946-28.616-28.616-.783-.273-1.196-1.128-.924-1.91z" transform="translate(-544 -582) translate(255 537) translate(49.067 45) translate(239.933)"/>
                    </g>
                </g>
            </g>
        </g>
    </g>
</svg>
