<svg xmlns="http://www.w3.org/2000/svg" width="112" height="112" viewBox="0 0 112 112">
    <g fill="none" fill-rule="evenodd">
        <g fill="#93A7CB" fill-rule="nonzero">
            <g>
                <g>
                    <path d="M100 22H86V4c0-2.21-1.79-4-4-4H4C1.79 0 0 1.79 0 4v58c0 2.21 1.79 4 4 4h10.88L1.18 79.76c-1.55 1.56-1.55 4.08 0 5.64l1.4 1.42c.752.756 1.774 1.18 2.84 1.18 1.06-.004 2.073-.429 2.82-1.18L29.02 66H66v18c0 2.21 1.79 4 4 4h30c2.21 0 4-1.79 4-4V26c0-2.21-1.79-4-4-4zM3 4c0-.552.448-1 1-1h78c.552 0 1 .448 1 1v5H3V4zm3.12 80.7c-.188.19-.443.296-.71.296-.267 0-.522-.107-.71-.296l-1.4-1.42c-.193-.181-.303-.435-.303-.7 0-.265.11-.519.303-.7L19.12 66l2.98-3L38 47.22 40.76 50l-13 13-3 3L6.12 84.7zM32 63.06l13-13 2.6-9.66-9.6 2.58-20 20H4c-.552 0-1-.448-1-1V12h80v10H70c-2.21 0-4 1.79-4 4v37.06H32zM101 84c0 .552-.448 1-1 1H70c-.548-.01-.99-.452-1-1v-5h32v5zm-32-8V26c0-.552.448-1 1-1h30c.552 0 1 .448 1 1v50H69z" transform="translate(-724 -167) translate(724 167) translate(4 12)"/>
                </g>
            </g>
        </g>
    </g>
</svg>
