<svg xmlns="http://www.w3.org/2000/svg" width="24" height="24" viewBox="0 0 24 24">
    <path fill="#FFF" fill-rule="evenodd" d="M23.712 1.957c.014-.474-.168-.933-.504-1.269-.335-.335-.794-.517-1.268-.503H1.789C.867.154.082.848 0 1.767v20.518c.08.91.852 1.6 1.765 1.58H21.94c.474.014.933-.168 1.268-.504.336-.335.518-.794.504-1.268V1.957zM6.796 20.348c-1.027-.008-2.053-.008-3.078 0-.168 0-.208-.048-.207-.21v-5.415-5.415c0-.195.048-.245.244-.242 1.02.01 2.038.01 3.055 0 .185 0 .22.052.22.224v10.828c0 .19-.053.232-.234.23zM5.27 7.516c-1.122 0-2.031-.91-2.031-2.031 0-1.122.91-2.03 2.03-2.03 1.122 0 2.032.908 2.032 2.03-.008 1.119-.913 2.024-2.031 2.03zm14.931 12.589c0 .195-.046.245-.241.243-1.012-.01-2.031 0-3.035 0-.185 0-.231-.044-.231-.23.007-1.877.007-3.756 0-5.635.006-.4-.031-.799-.111-1.19-.23-1.053-.892-1.533-1.966-1.428-1.075.105-1.662.728-1.81 1.885-.035.3-.052.602-.051.905v5.459c0 .184-.054.229-.235.229-1.026-.009-2.052-.009-3.077 0-.17 0-.209-.05-.209-.213V9.28c0-.185.06-.218.227-.218h2.923c.184 0 .221.057.218.225-.011.432 0 .866 0 1.292l.057.024c.175-.286.387-.549.631-.78.71-.684 1.664-1.056 2.65-1.032.78 0 1.545.088 2.257.439 1.049.517 1.538 1.434 1.786 2.518.166.816.241 1.647.223 2.48-.002 1.958-.011 3.919-.006 5.878z"/>
</svg>
