<svg xmlns="http://www.w3.org/2000/svg" width="24" height="24" viewBox="0 0 24 24">
    <path fill="#FFF" fill-rule="evenodd" d="M21 24H3c-1.656 0-3-1.344-3-3V3c0-1.656 1.344-3 3-3h18c1.656 0 3 1.344 3 3v18c0 1.656-1.344 3-3 3zM9.216 18.096c5.658 0 8.754-4.692 8.754-8.754 0-.132 0-.264-.006-.396.6-.432 1.122-.978 1.536-1.596-.552.246-1.146.408-1.77.486.636-.378 1.122-.984 1.356-1.704-.594.354-1.254.606-1.956.744-.564-.6-1.362-.972-2.244-.972-1.698 0-3.078 1.38-3.078 3.078 0 .24.03.474.078.702-2.556-.126-4.824-1.356-6.342-3.216-.264.456-.414.984-.414 1.548 0 1.068.546 2.01 1.368 2.562-.504-.018-.978-.156-1.392-.384v.042c0 1.488 1.062 2.736 2.466 3.018-.258.072-.528.108-.81.108-.198 0-.39-.018-.576-.054.39 1.224 1.53 2.112 2.874 2.136-1.056.828-2.382 1.32-3.822 1.32-.246 0-.492-.012-.732-.042 1.356.864 2.976 1.374 4.71 1.374"/>
</svg>
