<svg xmlns="http://www.w3.org/2000/svg" width="26" height="21" viewBox="0 0 26 21">
    <g fill="none" fill-rule="evenodd">
        <g fill="#94A9CB" fill-rule="nonzero">
            <g>
                <g>
                    <path d="M9.882 21v-9.973h-4.6l.037-.28c.115-.792.302-1.581.561-2.366l.164-.47c.576-1.566 1.727-3.244 3.454-5.034L5.852 0C3.678 2.174 2.16 4.395 1.295 6.664.432 8.934 0 11.38 0 14v7h9.882zM26 21v-9.973h-4.6l.037-.28c.115-.792.302-1.581.561-2.366l.164-.47c.576-1.566 1.727-3.244 3.454-5.034L21.97 0c-2.174 2.174-3.693 4.395-4.557 6.664-.863 2.27-1.295 4.715-1.295 7.336v7H26z" transform="translate(-381 -4894) translate(0 4428) translate(381 466)"/>
                </g>
            </g>
        </g>
    </g>
</svg>
