<svg id="blue" xmlns="http://www.w3.org/2000/svg" xmlns:xlink="http://www.w3.org/1999/xlink" viewBox="0 0 689 426"><defs><style>.cls-1{fill:none;}.cls-2{clip-path:url(#clip-path);}.cls-3{opacity:0.35;}.cls-4{fill:#00c1de;}.cls-5{opacity:0.25;fill:url(#linear-gradient);}</style><clipPath id="clip-path"><rect class="cls-1" width="689" height="426"/></clipPath><linearGradient id="linear-gradient" x1="494.63" y1="-94.8" x2="194.37" y2="520.8" gradientUnits="userSpaceOnUse"><stop offset="0" stop-color="#00c1de" stop-opacity="0"/><stop offset="1" stop-color="#00c1de"/></linearGradient></defs><g class="cls-2"><g class="cls-3"><path class="cls-4" d="M645-76a2,2,0,0,1,2,2V74a2,2,0,0,1-2,2H497a2,2,0,0,1-2-2V-74a2,2,0,0,1,2-2H645m0-10H497a12,12,0,0,0-12,12V74a12,12,0,0,0,12,12H645a12,12,0,0,0,12-12V-74a12,12,0,0,0-12-12Z"/></g><g class="cls-3"><rect class="cls-4" x="32" y="340" width="172" height="172" rx="12"/></g></g><rect id="gradient" class="cls-5" width="689" height="426"/></svg>