<svg xmlns="http://www.w3.org/2000/svg" width="128" height="128" viewBox="0 0 128 128">
    <defs>
        <linearGradient id="prefix__a" x1="78.848%" x2="21.152%" y1="-9.145%" y2="109.145%">
            <stop offset="0%" stop-color="#47D7AC"/>
            <stop offset="50%" stop-color="#05C3DD"/>
            <stop offset="100%" stop-color="#9678D3"/>
        </linearGradient>
    </defs>
    <g fill="none" fill-rule="evenodd">
        <path fill="url(#prefix__a)" fill-rule="nonzero" d="M64 1.542c34.495 0 62.458 27.963 62.458 62.458S98.495 126.458 64 126.458 1.542 98.495 1.542 64C1.585 29.523 29.523 1.585 64 1.542M64 0C28.654 0 0 28.654 0 64c0 35.346 28.654 64 64 64 35.346 0 64-28.654 64-64 0-16.974-6.743-33.253-18.745-45.255C97.253 6.743 80.974 0 64 0z"/>
        <circle cx="64" cy="64" r="39.557" fill="#9678D3"/>
        <path fill="#7D55C7" d="M93.47 37.613c-15.643-14.015-39.513-13.36-54.365 1.492-14.852 14.852-15.507 38.722-1.492 54.366-10.911-9.776-15.527-24.782-11.994-39C29.15 40.253 40.253 29.15 54.47 25.619c14.218-3.533 29.224 1.083 39 11.994z"/>
    </g>
</svg>
