<svg xmlns="http://www.w3.org/2000/svg" xmlns:xlink="http://www.w3.org/1999/xlink" viewBox="0 0 689 426"><defs><style>.cls-1{fill:none;}.cls-2{opacity:0.25;fill:url(#linear-gradient);}.cls-3{clip-path:url(#clip-path);}.cls-4,.cls-6{fill:#3bd4ae;}.cls-4,.cls-5{opacity:0.35;}</style><linearGradient id="linear-gradient" x1="494.63" y1="-94.8" x2="194.37" y2="520.8" gradientUnits="userSpaceOnUse"><stop offset="0" stop-color="#3bd4ae" stop-opacity="0"/><stop offset="1" stop-color="#3bd4ae"/></linearGradient><clipPath id="clip-path"><rect class="cls-1" width="689" height="426"/></clipPath></defs><g id="green"><rect class="cls-2" width="689" height="426"/><g class="cls-3"><path class="cls-4" d="M86,496H5.37a5.36,5.36,0,0,1-4.8-7.76l40.78-81.55,39.86-79.72a5.36,5.36,0,0,1,9.58,0l39.86,79.72,40.78,81.55a5.36,5.36,0,0,1-4.8,7.76Z"/><g class="cls-5"><path class="cls-6" d="M689,15.74l35.71,71.41L762.12,162H615.88l37.41-74.84L689,15.74M689,0a5.29,5.29,0,0,0-4.79,3L644.35,82.68l-40.78,81.55a5.36,5.36,0,0,0,4.8,7.76H769.63a5.36,5.36,0,0,0,4.8-7.76L733.65,82.68,693.79,3A5.29,5.29,0,0,0,689,0Z"/></g></g></g></svg>