<svg xmlns="http://www.w3.org/2000/svg" width="173" height="64" viewBox="0 0 173 64">
    <defs>
        <linearGradient id="r2cwem9vaa" x1="78.809%" x2="21.191%" y1="-9.145%" y2="109.145%">
            <stop offset="0%" stop-color="#47D7AC"/>
            <stop offset="50%" stop-color="#05C3DD"/>
            <stop offset="100%" stop-color="#9678D3"/>
        </linearGradient>
    </defs>
    <g fill="none">
        <path fill="url(#r2cwem9vaa)" d="M61.959 0H1.999C.895 0 0 .895 0 2v60c0 1.105.895 2 1.999 2h59.96c1.104 0 1.999-.895 1.999-2V2c0-1.105-.895-2-2-2zM4.997 5.38c12.99 2.19 22.5 13.444 22.5 26.625s-9.51 24.436-22.5 26.625V5.38zM17.673 59c9.227-5.873 14.815-16.057 14.815-27 0-10.943-5.588-21.127-14.815-27h41.288L31.979 59H17.673zm41.288 0h-21.4l21.4-42.83V59z"/>
        <path fill="#FFF" d="M173 41.833c.016 3.904-1.03 7.74-3.03 11.105-1.95 3.33-4.735 6.106-8.087 8.057-6.91 4.007-15.466 4.007-22.376 0-3.356-1.953-6.144-4.734-8.092-8.072-1.61-2.723-2.81-5.505-2.942-8.753-.007-.159.052-.313.163-.427.11-.115.264-.18.424-.18h10.747c.456 0 .853.306.967.743 1.39 5.627 7.498 9.419 13.949 7.01 2.853-1.046 5.036-3.37 5.883-6.265 1.12-3.926-.015-7.537-2.07-9.834-1.999-2.243-4.678-3.543-7.795-3.543h-5.998c-.346 0-.667-.177-.85-.468-.181-.292-.199-.655-.045-.962l9.295-18.362h-17.59c-.552 0-1-.444-1-.99V.99c0-.547.448-.99 1-.99h35.207c.347 0 .67.179.851.471.182.293.198.658.041.965l-10.534 20.862c4.082 2.142 7.395 5.483 9.485 9.565 1.59 3.086 2.412 6.505 2.397 9.97zm-44.337-20.218c.09 12.072-10.065 21.948-22.243 21.948H95.875v18.813c0 .547-.447.99-1 .99h-9.997c-.552 0-1-.443-1-.99V.99c0-.547.448-.99 1-.99h21.791c12.081 0 21.9 9.65 21.994 21.615zm-11.997.101c-.037-5.442-4.502-9.834-9.997-9.834H95.875v19.802h10.617c5.536 0 10.212-4.487 10.174-9.968z"/>
    </g>
</svg>
