<svg xmlns="http://www.w3.org/2000/svg" xmlns:xlink="http://www.w3.org/1999/xlink" viewBox="0 0 689 426"><defs><style>.cls-1{fill:none;}.cls-2{opacity:0.25;fill:url(#linear-gradient);}.cls-3{clip-path:url(#clip-path);}.cls-4,.cls-6{fill:#9578d3;}.cls-4,.cls-5{opacity:0.35;}</style><linearGradient id="linear-gradient" x1="494.96" y1="-94.91" x2="194.6" y2="520.91" gradientUnits="userSpaceOnUse"><stop offset="0" stop-color="#9578d3" stop-opacity="0"/><stop offset="1" stop-color="#9578d3"/></linearGradient><clipPath id="clip-path"><rect class="cls-1" width="689" height="426"/></clipPath></defs><g id="purple"><rect class="cls-2" width="689.57" height="426"/><g class="cls-3"><circle class="cls-4" cx="117.91" cy="426" r="85.91"/><g class="cls-5"><path class="cls-6" d="M571.09-75.91A76,76,0,0,1,647,0a76,76,0,0,1-75.91,75.91A76,76,0,0,1,495.18,0a76,76,0,0,1,75.91-75.91m0-10A85.91,85.91,0,0,0,485.18,0a85.91,85.91,0,0,0,85.91,85.91A85.91,85.91,0,0,0,657,0a85.91,85.91,0,0,0-85.91-85.91Z"/></g></g></g></svg>