<svg xmlns="http://www.w3.org/2000/svg" xmlns:xlink="http://www.w3.org/1999/xlink" width="1920" height="304" viewBox="0 0 1920 304">
    <defs>
        <path id="fsm4v82jha" d="M0 0H1920V304H0z"/>
    </defs>
    <g fill="none" fill-rule="evenodd">
        <g>
            <g transform="translate(-1 -104) translate(1 104)">
                <mask id="gl59noevxb" fill="#fff">
                    <use xlink:href="#fsm4v82jha"/>
                </mask>
                <use fill="#001A70" xlink:href="#fsm4v82jha"/>
                <g stroke="#94A9CB" mask="url(#gl59noevxb)" opacity=".5">
                    <rect width="209" height="209" x=".5" y=".5" rx="3" transform="translate(255 200)"/>
                </g>
                <g stroke="#94A9CB" mask="url(#gl59noevxb)" opacity=".5">
                    <circle cx="105" cy="105" r="104.5" transform="translate(495 -105)"/>
                </g>
                <g stroke="#94A9CB" mask="url(#gl59noevxb)" opacity=".5">
                    <path d="M164.21 4.336c.606-.202 1.29-.173 1.908.136.484.242.876.634 1.118 1.118h0l160.146 320.292c.309.617.338 1.302.136 1.909-.203.607-.637 1.136-1.254 1.445-.347.174-.73.264-1.118.264h0H4.854c-.69 0-1.315-.28-1.768-.732-.452-.453-.732-1.078-.732-1.768 0-.388.09-.77.264-1.118h0L162.764 5.59c.309-.617.838-1.051 1.445-1.254z" transform="translate(1414 129)"/>
                </g>
            </g>
        </g>
    </g>
</svg>
