<svg xmlns="http://www.w3.org/2000/svg" width="128" height="128" viewBox="0 0 128 128">
    <defs>
        <linearGradient id="lchu5afzja" x1="78.848%" x2="21.152%" y1="-9.145%" y2="109.145%">
            <stop offset="0%" stop-color="#47D7AC"/>
            <stop offset="50%" stop-color="#05C3DD"/>
            <stop offset="100%" stop-color="#9678D3"/>
        </linearGradient>
    </defs>
    <g fill="none" fill-rule="evenodd">
        <path fill="url(#lchu5afzja)" fill-rule="nonzero" d="M124.916 1.542c.851 0 1.542.69 1.542 1.542v121.832c0 .851-.69 1.542-1.542 1.542H3.084c-.851 0-1.542-.69-1.542-1.542V3.084c0-.851.69-1.542 1.542-1.542h121.832m0-1.542H3.084C1.381 0 0 1.38 0 3.084v121.832C0 126.619 1.38 128 3.084 128h121.832c1.703 0 3.084-1.38 3.084-3.084V3.084C128 1.381 126.62 0 124.916 0z"/>
        <rect width="79.238" height="79.238" x="24.381" y="24.381" fill="#05C3DD" rx="4"/>
        <path fill="#009CBD" d="M103.619 27.47v.772H31.332c-1.706 0-3.09 1.384-3.09 3.09v72.287h-.772c-1.706 0-3.089-1.383-3.089-3.09V27.47c0-1.706 1.383-3.089 3.09-3.089h73.059c1.706 0 3.089 1.383 3.089 3.09z"/>
    </g>
</svg>
