<svg xmlns="http://www.w3.org/2000/svg" width="128" height="128" viewBox="0 0 128 128">
    <defs>
        <linearGradient id="prefix__a" x1="78.848%" x2="21.152%" y1="-9.14%" y2="109.14%">
            <stop offset="0%" stop-color="#47D7AC"/>
            <stop offset="50%" stop-color="#05C3DD"/>
            <stop offset="100%" stop-color="#9678D3"/>
        </linearGradient>
    </defs>
    <g fill="none" fill-rule="evenodd">
        <path fill="url(#prefix__a)" fill-rule="nonzero" d="M63.63 1.58c.6 0 1.148.34 1.415.877l60.468 120.937c.243.489.216 1.068-.07 1.532-.288.466-.796.751-1.344.751H3.163c-.548 0-1.056-.285-1.343-.75-.287-.465-.314-1.044-.072-1.533L62.217 2.457c.266-.537.814-.877 1.414-.877m0-1.58c-1.2 0-2.295.68-2.829 1.754L.334 122.682c-.49.98-.438 2.145.138 3.077.577.932 1.595 1.498 2.69 1.498H124.1c1.096 0 2.114-.566 2.69-1.498.577-.932.63-2.096.139-3.077L66.46 1.754C65.926.68 64.83 0 63.63 0z"/>
        <path fill="#47D7AC" d="M60.802 36.235L25.39 107.07c-.49.978-.438 2.141.136 3.073.575.931 1.59 1.5 2.685 1.501h70.842c1.095-.002 2.11-.57 2.685-1.501.574-.932.626-2.095.136-3.073L66.46 36.235c-.535-1.073-1.63-1.75-2.83-1.75-1.198 0-2.293.677-2.828 1.75z"/>
        <path fill="#00AB8E" d="M67.179 37.673c-1.329-.165-2.617.525-3.216 1.723L28.549 110.23c-.22.44-.336.923-.34 1.414-1.094-.002-2.11-.57-2.684-1.501-.574-.932-.626-2.095-.136-3.073l35.413-70.835c.535-1.073 1.63-1.75 2.829-1.75 1.198 0 2.294.677 2.829 1.75l.719 1.438z"/>
    </g>
</svg>
