<svg xmlns="http://www.w3.org/2000/svg" width="408" height="353" viewBox="0 0 408 353">
    <g fill="none" fill-rule="evenodd">
        <path stroke="#A5DFD3" stroke-width="1.5" d="M307.683 5.367L407.83 205.658c.741 1.482.14 3.284-1.341 4.025-.417.209-.876.317-1.342.317H204.854c-1.657 0-3-1.343-3-3 0-.466.109-.925.317-1.342L302.317 5.367c.74-1.482 2.543-2.083 4.025-1.342.58.29 1.051.761 1.341 1.342z" opacity=".5" transform="matrix(-1 0 0 1 409 -2)"/>
        <path fill="#A5DFD3" fill-opacity=".33" d="M202.683 280.367l35.146 70.291c.741 1.482.14 3.284-1.341 4.025-.417.209-.876.317-1.342.317h-70.292c-1.657 0-3-1.343-3-3 0-.466.109-.925.317-1.342l35.146-70.291c.74-1.482 2.543-2.083 4.025-1.342.58.29 1.051.761 1.341 1.342zM67.683 150.367l60.146 120.291c.741 1.482.14 3.284-1.341 4.025-.417.209-.876.317-1.342.317H4.854c-1.657 0-3-1.343-3-3 0-.466.109-.925.317-1.342l60.146-120.291c.74-1.482 2.543-2.083 4.025-1.342.58.29 1.051.761 1.341 1.342z" transform="matrix(-1 0 0 1 409 -2)"/>
    </g>
</svg>
