<svg xmlns="http://www.w3.org/2000/svg" width="28" height="60" viewBox="0 0 28 60">
    <path fill="#F0F0F0" d="M23.142 0c.557 0 1.042.37 1.174.895l3.063 12.204c.677 2.7.801 5.462.368 8.21-.94 5.963-4.47 11.268-9.684 14.555l-2.855 1.8V53.22l9.4 4.559c.502.243.765.789.636 1.317-.129.53-.616.903-1.176.903H3.931c-.56 0-1.046-.374-1.175-.903-.129-.528.134-1.074.635-1.317l9.401-4.56V37.665l-2.855-1.8C4.722 32.577 1.192 27.272.252 21.31c-.432-2.748-.308-5.51.37-8.21L3.683.895C3.816.369 4.3 0 4.858 0zM14 55.255L9.05 57.656h9.902l-4.95-2.401zm11.232-40.707H2.768c-.421 2.115-.464 4.266-.127 6.406.836 5.304 3.975 10.022 8.613 12.945L14 35.63l2.746-1.73c4.638-2.924 7.777-7.642 8.613-12.946.337-2.14.294-4.29-.127-6.406zm-4.898 6.915c.158-.629.811-1.014 1.46-.86.648.153 1.045.787.887 1.416-.826 3.277-2.638 6.192-5.241 8.43-.23.198-.516.295-.801.295-.334 0-.666-.133-.904-.394-.443-.485-.397-1.225.102-1.655 2.234-1.92 3.788-4.421 4.497-7.232zm1.579-5.354c.317 0 .629.125.854.343.224.218.354.52.354.829 0 .309-.13.61-.354.829-.225.218-.537.342-.854.342-.318 0-.63-.124-.854-.342-.225-.219-.354-.52-.354-.83 0-.308.129-.61.354-.828.224-.218.536-.343.854-.343zm.28-13.765H5.807l-2.475 9.86h21.336l-2.475-9.86z"/>
</svg>
