<svg xmlns="http://www.w3.org/2000/svg" width="92" height="80" viewBox="0 0 92 80">
    <path fill="#57565B" fill-opacity=".1" fill-rule="evenodd" d="M65.46 18.837c-4.726 5.943-7.09 11.964-7.09 18.062 0 2.584.309 4.806.926 6.667 3.596-2.79 7.5-4.186 11.713-4.186 5.754 0 10.558 1.834 14.411 5.504 3.853 3.669 5.78 8.604 5.78 14.806 0 5.788-1.952 10.62-5.857 14.496C81.44 78.062 76.661 80 71.01 80c-8.117 0-14.334-3.36-18.65-10.078-3.596-5.58-5.394-12.558-5.394-20.93 0-10.646 2.697-20.18 8.092-28.604C60.451 11.964 68.595 5.168 79.487 0l2.928 5.736c-6.576 2.791-12.228 7.158-16.954 13.101zm-46.965 0c-4.726 5.943-7.09 11.964-7.09 18.062 0 2.584.309 4.806.925 6.667 3.494-2.79 7.398-4.186 11.714-4.186 5.651 0 10.43 1.834 14.334 5.504 3.904 3.669 5.857 8.604 5.857 14.806 0 3.824-.925 7.287-2.775 10.388-1.85 3.1-4.315 5.53-7.398 7.286C30.98 79.121 27.64 80 24.044 80c-8.117 0-14.334-3.36-18.65-10.078C1.798 64.342 0 57.364 0 48.992c0-10.646 2.697-20.18 8.092-28.604C13.486 11.964 21.629 5.168 32.52 0l2.928 5.736c-6.576 2.791-12.227 7.158-16.954 13.101z"/>
</svg>
